<svg xmlns="http://www.w3.org/2000/svg" viewBox="0 0 212.64 211.12"><defs><style>.cls-1{fill:#2d5697;}.cls-2{fill:#285c4d;}.cls-3{fill:#295c4e;}</style></defs><g id="Layer_2" data-name="Layer 2"><g id="Layer_1-2" data-name="Layer 1"><path class="cls-1" d="M101.3,197.3c12.29,3.91,24.8,3.63,37.4,2.07,7.92-1,15.41-3.61,22.91-6.23l.72,1.27c-2.64,1.55-5.22,3.2-7.92,4.62-20.16,10.62-41.62,13.88-64.11,11.2l-17-3.88a111.51,111.51,0,0,1-38.74-22.69C17.91,168.5,7.06,150,2.39,128.08-8.62,76.38,19.26,25.06,68.56,7c32.91-12.08,64.31-8.18,94.12,9.91,1,.63,2.45,1.13,2.68,3.18a93.37,93.37,0,0,0-38.23-9.14c-32.13-.58-58.47,11.66-77.9,37-29.49,38.51-25.72,91.51,8.21,124.94,7.81,7.69,16.49,14.35,26.87,18.42A45.56,45.56,0,0,0,101.3,197.3Z"/><path class="cls-2" d="M121.28,152.5a8,8,0,0,0-1-.14c-7.2-.24-8.72-2.33-7.16-9.52.59-2.77,3-3.12,4.89-3.44,5.07-.89,6.15-3.82,5.81-8.44a149.87,149.87,0,0,1,0-15c.07-2.6-.43-3.92-3.5-3.86q-14,.27-28,0c-3-.06-3.61,1.21-3.52,3.85a98.65,98.65,0,0,1-.06,14c-.62,5.53,1,8.87,6.75,9.71,3.28.47,4.1,2.47,4.05,5.62-.13,7.06,0,7.06-7.16,7.06-10.16,0-20.32-.1-30.48.06-2.8,0-3.45-.77-3.72-3.58-.53-5.54.87-9.22,6.81-10.33,2.67-.49,3.42-2.23,3.39-5q-.21-27.48,0-55c0-3-.94-4.28-3.68-5.26-6.24-2.22-7.95-6-6.43-12.26.49-2,1.8-1.59,3-1.61,11.48-.2,23-.31,34.45-.59,2.7-.07,3.77.62,3.81,3.58.11,8.13.29,8.19-7.42,11.1-2.25.85-3.49,1.85-3.36,4.57.25,5,.14,10,0,15,0,2.35.88,3.21,3.25,3.19q14.25-.13,28.49,0c2.33,0,3.36-.69,3.23-3.12a40.73,40.73,0,0,1,0-7.49c1-7.2,0-13.09-8.77-14.15-1.55-.18-1.73-1.06-1.92-2.32-1.34-8.88-.6-9.71,8.39-9.79,9.32-.1,18.64-.24,28-.57,3.36-.13,4.75.36,5,4.41.43,6-1.38,9.27-7.29,10.33-2.32.41-3,2-3,4.35.15,17.82.16,35.64.21,53.46-.42,3.39-.91,6.83,4,7.35,8.37,1.81,5.46,8.39,5.77,13.62l-10.91.21-11,0Z"/><path class="cls-3" d="M109.32,188.16l-17.89-6.41-3.9-1.9c-1.18-1.6-3.15-2-5.8-3.7,7.24.26,12.51,4.08,18.56,4,16.45,3,32.17,1.12,47-7a56.17,56.17,0,0,0,21-15.86,55.6,55.6,0,0,0,14.06-21c1.61-3.55,3.86-6.88,3.82-11a27.17,27.17,0,0,0,2.2-12c2.4-10.69.43-21.12-3.07-31.07-10.54-30-31.78-47.5-63.32-52a69,69,0,0,0-31,2.81c-2.32.75-4.62,1.85-7.18,1,39.16-25,92.63-12.48,116.48,27.22a124.58,124.58,0,0,1,8.56,18.19c1.62,6.85,3.65,13.64,3.62,20.78,3.05,45.25-30.33,84.6-76.23,89.4-4.28.45-8.62.25-12.93.35Z"/></g></g></svg>